<svg xmlns="http://www.w3.org/2000/svg" viewBox="0 0 1192.55 192.1"><title>pancakes-logo</title><g id="Layer_2" data-name="Layer 2"><g id="Layer_1-2" data-name="Layer 1"><rect y="173.31" width="92.11" height="12.46" rx="4.61" ry="4.61" style="fill:#f3b44e"/><rect x="104.87" y="173.31" width="92.11" height="12.46" rx="4.61" ry="4.61" style="fill:#ffd05e"/><rect x="209.73" y="173.31" width="92.11" height="12.46" rx="4.61" ry="4.61" style="fill:#f3b44e"/><rect x="52.43" y="142.63" width="92.11" height="12.46" rx="4.61" ry="4.61" style="fill:#f3b44e"/><rect x="154.11" y="142.63" width="92.11" height="12.46" rx="4.61" ry="4.61" style="fill:#ffd05e"/><path d="M301.85,155.09H259.51c-2.05,0-3.72-2.26-3.72-5v-2.4c0-2.76,1.67-5,3.72-5h42.34" style="fill:#f3b44e"/><path d="M0,155.09H42.34c2,0,3.72-2.26,3.72-5v-2.4c0-2.76-1.68-5-3.72-5H0" style="fill:#ffd05e"/><rect y="111.95" width="92.11" height="12.46" rx="4.61" ry="4.61" style="fill:#f3b44e"/><rect x="104.87" y="111.95" width="92.11" height="12.46" rx="4.61" ry="4.61" style="fill:#ffd05e"/><rect x="209.73" y="111.95" width="92.11" height="12.46" rx="4.61" ry="4.61" style="fill:#f3b44e"/><rect x="52.43" y="81.27" width="92.11" height="12.46" rx="4.61" ry="4.61" style="fill:#f3b44e"/><rect x="154.11" y="81.27" width="92.11" height="12.46" rx="4.61" ry="4.61" style="fill:#ffd05e"/><path d="M301.85,93.74H259.51c-2.05,0-3.72-2.27-3.72-5V86.31c0-2.77,1.67-5,3.72-5h42.34" style="fill:#f3b44e"/><path d="M0,93.74H42.34c2,0,3.72-2.27,3.72-5V86.31c0-2.77-1.68-5-3.72-5H0" style="fill:#ffd05e"/><rect y="50.6" width="92.11" height="12.46" rx="4.61" ry="4.61" style="fill:#f3b44e"/><rect x="104.87" y="50.6" width="92.11" height="12.46" rx="4.61" ry="4.61" style="fill:#ffd05e"/><rect x="209.73" y="50.6" width="92.11" height="12.46" rx="4.61" ry="4.61" style="fill:#f3b44e"/><rect x="52.43" y="19.92" width="92.11" height="12.46" rx="4.61" ry="4.61" style="fill:#f3b44e"/><rect x="154.11" y="19.92" width="92.11" height="12.46" rx="4.61" ry="4.61" style="fill:#ffd05e"/><path d="M301.85,32.38H259.51c-2.05,0-3.72-2.26-3.72-5V25c0-2.77,1.67-5,3.72-5h42.34" style="fill:#f3b44e"/><path d="M0,32.38H42.34c2,0,3.72-2.26,3.72-5V25c0-2.77-1.68-5-3.72-5H0" style="fill:#ffd05e"/><text transform="translate(383.05 142.63)" style="font-size:167.7051544189453px;fill:#4d4d4d;font-family:Montserrat-Bold, Montserrat;font-weight:700">pan<tspan x="328.36" y="0" style="letter-spacing:-0.009998248523186596em">c</tspan><tspan x="420.94" y="0">a</tspan><tspan x="521.56" y="0" style="letter-spacing:-0.027997425101619774em">k</tspan><tspan x="622.51" y="0">es</tspan></text></g></g></svg>