<?xml version="1.0" encoding="utf-8"?>
<!-- Generator: Adobe Illustrator 16.0.0, SVG Export Plug-In . SVG Version: 6.00 Build 0)  -->
<!DOCTYPE svg PUBLIC "-//W3C//DTD SVG 1.1//EN" "http://www.w3.org/Graphics/SVG/1.1/DTD/svg11.dtd">
<svg version="1.1" id="Layer_1" xmlns="http://www.w3.org/2000/svg" xmlns:xlink="http://www.w3.org/1999/xlink" x="0px" y="0px"
	 width="127.167px" height="71px" viewBox="0 217.333 127.167 71" enable-background="new 0 217.333 127.167 71"
	 xml:space="preserve">
<title>pancakes-logo</title>
<g id="Layer_2">
	<g id="Layer_1-2">
		<path fill="#F3B44E" d="M1.933,282.393h34.753c1.067,0,1.933,0.865,1.933,1.934v1.357c0,1.068-0.866,1.934-1.933,1.934H1.933
			c-1.067,0-1.933-0.865-1.933-1.934v-1.357C0,283.258,0.865,282.393,1.933,282.393z"/>
		<path fill="#FFD05E" d="M45.902,282.393h34.753c1.067,0,1.933,0.865,1.933,1.934v1.357c0,1.068-0.866,1.934-1.933,1.934H45.902
			c-1.068,0-1.933-0.865-1.933-1.934v-1.357C43.969,283.258,44.834,282.393,45.902,282.393z"/>
		<path fill="#F3B44E" d="M89.866,282.393h34.753c1.067,0,1.933,0.865,1.933,1.934v1.357c0,1.068-0.865,1.934-1.933,1.934H89.866
			c-1.067,0-1.933-0.865-1.933-1.934v-1.357C87.934,283.258,88.799,282.393,89.866,282.393z"/>
		<path fill="#F3B44E" d="M23.915,269.529h34.753c1.067,0,1.933,0.865,1.933,1.934v1.357c0,1.068-0.865,1.934-1.933,1.934H23.915
			c-1.067,0-1.933-0.865-1.933-1.934v-1.357C21.982,270.395,22.848,269.529,23.915,269.529z"/>
		<path fill="#FFD05E" d="M66.546,269.529H101.3c1.067,0,1.933,0.865,1.933,1.934v1.357c0,1.068-0.865,1.934-1.933,1.934H66.546
			c-1.067,0-1.933-0.865-1.933-1.934v-1.357C64.614,270.395,65.479,269.529,66.546,269.529z"/>
		<path fill="#F3B44E" d="M126.557,274.754h-17.752c-0.859,0-1.56-0.947-1.56-2.097v-1.007c0-1.156,0.7-2.096,1.56-2.096h17.752"/>
		<path fill="#FFD05E" d="M0,274.754h17.752c0.838,0,1.56-0.947,1.56-2.097v-1.007c0-1.156-0.704-2.096-1.56-2.096H0"/>
		<path fill="#F3B44E" d="M1.933,256.666h34.753c1.067,0,1.933,0.865,1.933,1.934v1.357c0,1.068-0.866,1.934-1.933,1.934H1.933
			c-1.067,0-1.933-0.865-1.933-1.934V258.6C0,257.531,0.865,256.666,1.933,256.666z"/>
		<path fill="#FFD05E" d="M45.902,256.666h34.753c1.067,0,1.933,0.865,1.933,1.934v1.357c0,1.068-0.866,1.934-1.933,1.934H45.902
			c-1.068,0-1.933-0.865-1.933-1.934V258.6C43.969,257.531,44.834,256.666,45.902,256.666z"/>
		<path fill="#F3B44E" d="M89.866,256.666h34.753c1.067,0,1.933,0.865,1.933,1.934v1.357c0,1.068-0.865,1.934-1.933,1.934H89.866
			c-1.067,0-1.933-0.865-1.933-1.934V258.6C87.934,257.531,88.799,256.666,89.866,256.666z"/>
		<path fill="#F3B44E" d="M23.915,243.803h34.753c1.067,0,1.933,0.865,1.933,1.933v1.358c0,1.068-0.865,1.933-1.933,1.933H23.915
			c-1.067,0-1.933-0.865-1.933-1.933v-1.358C21.982,244.668,22.848,243.803,23.915,243.803z"/>
		<path fill="#FFD05E" d="M66.546,243.803H101.3c1.067,0,1.933,0.865,1.933,1.933v1.358c0,1.068-0.865,1.933-1.933,1.933H66.546
			c-1.067,0-1.933-0.865-1.933-1.933v-1.358C64.614,244.668,65.479,243.803,66.546,243.803z"/>
		<path fill="#F3B44E" d="M126.557,249.031h-17.752c-0.859,0-1.56-0.952-1.56-2.096v-1.019c0-1.162,0.7-2.097,1.56-2.097h17.752"/>
		<path fill="#FFD05E" d="M0,249.031h17.752c0.838,0,1.56-0.952,1.56-2.096v-1.019c0-1.162-0.704-2.097-1.56-2.097H0"/>
		<path fill="#F3B44E" d="M1.933,230.944h34.753c1.067,0,1.933,0.865,1.933,1.933v1.358c0,1.067-0.866,1.933-1.933,1.933H1.933
			c-1.067,0-1.933-0.866-1.933-1.933v-1.358C0,231.81,0.865,230.944,1.933,230.944z"/>
		<path fill="#FFD05E" d="M45.902,230.944h34.753c1.067,0,1.933,0.865,1.933,1.933v1.358c0,1.067-0.866,1.933-1.933,1.933H45.902
			c-1.068,0-1.933-0.866-1.933-1.933v-1.358C43.969,231.81,44.834,230.944,45.902,230.944z"/>
		<path fill="#F3B44E" d="M89.866,230.944h34.753c1.067,0,1.933,0.865,1.933,1.933v1.358c0,1.067-0.865,1.933-1.933,1.933H89.866
			c-1.067,0-1.933-0.866-1.933-1.933v-1.358C87.934,231.81,88.799,230.944,89.866,230.944z"/>
		<path fill="#F3B44E" d="M23.915,218.081h34.753c1.067,0,1.933,0.865,1.933,1.933v1.358c0,1.068-0.865,1.933-1.933,1.933H23.915
			c-1.067,0-1.933-0.865-1.933-1.933v-1.358C21.982,218.946,22.848,218.081,23.915,218.081z"/>
		<path fill="#FFD05E" d="M66.546,218.081H101.3c1.067,0,1.933,0.865,1.933,1.933v1.358c0,1.068-0.865,1.933-1.933,1.933H66.546
			c-1.067,0-1.933-0.865-1.933-1.933v-1.358C64.614,218.946,65.479,218.081,66.546,218.081z"/>
		<path fill="#F3B44E" d="M126.557,223.305h-17.752c-0.859,0-1.56-0.948-1.56-2.096v-0.998c0-1.162,0.7-2.096,1.56-2.096h17.752"/>
		<path fill="#FFD05E" d="M0,223.305h17.752c0.838,0,1.56-0.948,1.56-2.096v-0.998c0-1.162-0.704-2.096-1.56-2.096H0"/>
		<text transform="matrix(1 0 0 1 160.6011 269.5293)" fill="#4D4D4D" font-family="'Arial-BoldMT'" font-size="70.3137">pan</text>
		<text transform="matrix(1 0 0 1 298.2734 269.5293)" fill="#4D4D4D" font-family="'Arial-BoldMT'" font-size="70.3137">c</text>
		<text transform="matrix(1 0 0 1 337.0879 269.5293)" fill="#4D4D4D" font-family="'Arial-BoldMT'" font-size="70.3137">a</text>
		
			<text transform="matrix(1 0 0 1 379.2754 269.5293)" fill="#4D4D4D" font-family="'Arial-BoldMT'" font-size="70.3137" letter-spacing="-1">k</text>
		<text transform="matrix(1 0 0 1 421.6016 269.5293)" fill="#4D4D4D" font-family="'Arial-BoldMT'" font-size="70.3137">es</text>
	</g>
</g>
</svg>
